<svg id="Layer_1" data-name="Layer 1" xmlns="http://www.w3.org/2000/svg" viewBox="0 0 191.46 53.04"><defs><style>.cls-1{fill:#b9b9b9;}</style></defs><title>header</title><path class="cls-1" d="M122.55,170l-2.85-.71a20.64,20.64,0,0,1-5.33-2.1,22.64,22.64,0,0,1-4.64-3.52l3.86-5.48a17.23,17.23,0,0,0,5.56,3.8,17,17,0,0,0,6.59,1.26q4.8,0,7.44-2a6.93,6.93,0,0,0,2.65-5.82v0a6.77,6.77,0,0,0-1.2-4.23,7.11,7.11,0,0,0-3.1-2.32,29.87,29.87,0,0,0-4.91-1.39.58.58,0,0,0-.19,0,.6.6,0,0,1-.2,0l-.46-.11a41.47,41.47,0,0,1-7.21-2,10.42,10.42,0,0,1-4.76-4q-2-2.94-2-8.34v0a16.6,16.6,0,0,1,1.84-8.1,12.11,12.11,0,0,1,5.36-5.11,20.39,20.39,0,0,1,13.14-1.16,20.9,20.9,0,0,1,4.52,1.78,25,25,0,0,1,4.39,3l-3.52,5.69a20.13,20.13,0,0,0-5-3.22,12.78,12.78,0,0,0-5-1.07,10.7,10.7,0,0,0-7,2.09,7.28,7.28,0,0,0-2.5,5.92v0a6.18,6.18,0,0,0,1.29,4.14,7.64,7.64,0,0,0,3.22,2.23,42,42,0,0,0,5.36,1.49l.23.06.22,0,.34.07.33.07a32.48,32.48,0,0,1,6.7,2.25,10.86,10.86,0,0,1,4.5,4.2,14.93,14.93,0,0,1,1.8,7.92v.07a15.7,15.7,0,0,1-1.91,8,12.44,12.44,0,0,1-5.54,5.06,20.17,20.17,0,0,1-8.77,1.74Z" transform="translate(-109.73 -117)"/><path class="cls-1" d="M215.93,118.43h5.8v51.08h-6V131.25l.3,2.25-10.88,28.91H200.8l-10.87-28.2.3-3v38.26h-6V118.43H190l13,33.73Z" transform="translate(-109.73 -117)"/><path class="cls-1" d="M239.18,167.81a14,14,0,0,1-5.3-6.5A26.21,26.21,0,0,1,232.06,151v-32.6h6.19v32.85q0,5.58,2.43,8.64a9.29,9.29,0,0,0,13.78,0q2.44-3.06,2.44-8.64V118.43h6.2V151a26.21,26.21,0,0,1-1.82,10.28,14,14,0,0,1-5.32,6.5,16.9,16.9,0,0,1-16.78,0Z" transform="translate(-109.73 -117)"/><path class="cls-1" d="M272.82,118.43H279v51.08h-6.2Zm3.1,44.27h25.27v6.81H275.92Z" transform="translate(-109.73 -117)"/><path class="cls-1" d="M173.93,134.28c-1.23-3.43-3.34-5.36-5.39-7.22a17.54,17.54,0,0,1-4-4.58l-.18-.33a10.45,10.45,0,0,1-1.39-3.39c-.11-1.06-.82-1.82-1.59-1.76a1.88,1.88,0,0,0-1.4,2v36.31a7,7,0,0,0-4.49-1.67c-4.14,0-7.5,3.65-7.5,8.14s3.36,8.15,7.5,8.15,7.49-3.65,7.49-8.15V126.29a25.13,25.13,0,0,0,3.88,4.16c1.8,1.63,3.49,3.17,4.37,5.62a12.5,12.5,0,0,1,.75,4.68,20.3,20.3,0,0,1-2.63,9.53,2.6,2.6,0,0,0,.14,2.88,1.23,1.23,0,0,0,2.11-.19A25.42,25.42,0,0,0,175,141,17.64,17.64,0,0,0,173.93,134.28Z" transform="translate(-109.73 -117)"/></svg>